HIERARCHY
ROOT Hips
{
  OFFSET 19.0488 96.5593 -0.798021
  CHANNELS 6 Xposition Yposition Zposition Zrotation Xrotation Yrotation
  JOINT Chest
  {
    OFFSET 1.07959 10.5691 0
    CHANNELS 6 Xposition Yposition Zposition Zrotation Xrotation Yrotation
    JOINT Chest2
    {
      OFFSET -1.08235 11.6675 0
      CHANNELS 6 Xposition Yposition Zposition Zrotation Xrotation Yrotation
      JOINT Chest3
      {
        OFFSET 0 10.5876 0
        CHANNELS 6 Xposition Yposition Zposition Zrotation Xrotation Yrotation
        JOINT Chest4
        {
          OFFSET 0 10.5876 0
          CHANNELS 6 Xposition Yposition Zposition Zrotation Xrotation Yrotation
          JOINT Neck
          {
            OFFSET 0 14.88 0
            CHANNELS 6 Xposition Yposition Zposition Zrotation Xrotation Yrotation
            JOINT Head
            {
              OFFSET -2.16553 9.61484 0
              CHANNELS 6 Xposition Yposition Zposition Zrotation Xrotation Yrotation
              End Site
              {
                OFFSET 0 0 0
              }
            }
          }
          JOINT RightCollar
          {
            OFFSET 0 8.30385 -3.23953
            CHANNELS 6 Xposition Yposition Zposition Zrotation Xrotation Yrotation
            JOINT RightShoulder
            {
              OFFSET 0 0 -15.1725
              CHANNELS 6 Xposition Yposition Zposition Zrotation Xrotation Yrotation
              JOINT RightElbow
              {
                OFFSET 0 0 -32.4113
                CHANNELS 6 Xposition Yposition Zposition Zrotation Xrotation Yrotation
                JOINT RightWrist
                {
                  OFFSET -1.0813 0 -26.4919
                  CHANNELS 6 Xposition Yposition Zposition Zrotation Xrotation Yrotation
                  End Site
                  {
                    OFFSET 0 0 0
                  }
                }
              }
            }
          }
          JOINT LeftCollar
          {
            OFFSET 0 8.30385 3.23953
            CHANNELS 6 Xposition Yposition Zposition Zrotation Xrotation Yrotation
            JOINT LeftShoulder
            {
              OFFSET 0 0 15.1725
              CHANNELS 6 Xposition Yposition Zposition Zrotation Xrotation Yrotation
              JOINT LeftElbow
              {
                OFFSET 1.31199e-005 0 32.4113
                CHANNELS 6 Xposition Yposition Zposition Zrotation Xrotation Yrotation
                JOINT LeftWrist
                {
                  OFFSET -1.0813 0 26.4919
                  CHANNELS 6 Xposition Yposition Zposition Zrotation Xrotation Yrotation
                  End Site
                  {
                    OFFSET 0 0 0
                  }
                }
              }
            }
          }
        }
      }
    }
  }
  JOINT RightHip
  {
    OFFSET 0 0.00547028 -8.63673
    CHANNELS 6 Xposition Yposition Zposition Zrotation Xrotation Yrotation
    JOINT RightKnee
    {
      OFFSET 2.13961 -44.4932 0
      CHANNELS 6 Xposition Yposition Zposition Zrotation Xrotation Yrotation
      JOINT RightAnkle
      {
        OFFSET 3.54051 -43.4407 0
        CHANNELS 6 Xposition Yposition Zposition Zrotation Xrotation Yrotation
        JOINT RightToe
        {
          OFFSET -19.1252 -8.3927 0
          CHANNELS 6 Xposition Yposition Zposition Zrotation Xrotation Yrotation
          End Site
          {
            OFFSET 0 0 0
          }
        }
      }
    }
  }
  JOINT LeftHip
  {
    OFFSET 0 0.00547028 8.63674
    CHANNELS 6 Xposition Yposition Zposition Zrotation Xrotation Yrotation
    JOINT LeftKnee
    {
      OFFSET 2.13962 -44.4932 0
      CHANNELS 6 Xposition Yposition Zposition Zrotation Xrotation Yrotation
      JOINT LeftAnkle
      {
        OFFSET 3.54051 -43.4407 0
        CHANNELS 6 Xposition Yposition Zposition Zrotation Xrotation Yrotation
        JOINT LeftToe
        {
          OFFSET -19.1253 -8.39271 0
          CHANNELS 6 Xposition Yposition Zposition Zrotation Xrotation Yrotation
          End Site
          {
            OFFSET 0 0 0
          }
        }
      }
    }
  }
}
MOTION
Frames:	4
Frame Time:	0.0333333
-60.2556 94.5724 -73.3052 -1.55285 2.60461 178.44 1.07959 10.5691 1.19209e-007 1.09446 0.163936 0.898597 -1.08235 11.6675 1.19209e-007 2.18625 0.344968 1.79382 -3.92103e-007 10.5876 1.42109e-014 2.18625 0.34497 1.79387 -3.92103e-007 10.5876 2.84217e-014 2.18625 0.344971 1.79386 -5.51066e-007 14.88 2.84217e-014 9.78654 9.1019 -3.78765 -2.16553 9.61823 -2.38418e-007 -2.2157 -11.5562 -8.57236 1.42109e-014 8.30385 -3.23953 -2.55935e-015 -3.97569e-016 -0 -4.12222e-006 -4.76837e-006 -15.1725 5.76037 -63.445 3.71597 6.41961e-007 -3.99284e-006 -32.4113 30.7242 -2.37428 26.62 -1.0813 4.80214e-006 -26.4919 0.837101 -3.58443 24.5232 0 8.30385 3.23953 -2.55935e-015 -3.97569e-016 -0 5.41452e-006 -4.76837e-006 15.1725 14.4474 69.0865 -15.2541 1.31199e-005 -2.43155e-006 32.4113 9.19579 18.4043 -16.1632 -1.0813 1.03766e-006 26.4919 -1.10126 -10.2232 -10.5525 1.90735e-006 0.00547028 -8.63673 1.00566 -3.55591 -4.19984 2.13963 -44.4933 -2.34936e-006 14.568 -0.618787 4.09544 3.54051 -43.4407 6.57826e-007 -9.74529 4.45294 0.869789 -19.1252 -8.3927 -1.35324e-007 -6.01388 3.00707 -0.704293 1.90735e-006 0.00547028 8.63674 -30.6254 -2.30214 2.49416 2.13962 -44.4932 -3.45957e-007 30.7696 4.38669 1.80584 3.54051 -43.4407 6.59216e-007 4.06074 -2.16755 3.52869 -19.1253 -8.39271 4.51526e-006 -7.37176 -2.10891 5.14558 
-55.6975 93.9115 -73.7161 -1.84022 2.8358 177.424 1.07959 10.5691 1.19209e-007 1.01694 0.218071 1.06453 -1.08235 11.6675 1.19209e-007 2.02967 0.454963 2.12493 -3.92103e-007 10.5876 1.42109e-014 2.02967 0.454964 2.12494 -3.92103e-007 10.5876 2.84217e-014 2.02967 0.454968 2.12497 -5.51066e-007 14.88 2.84217e-014 9.81891 9.06635 -3.90667 -2.16553 9.61825 -2.38418e-007 -2.47653 -11.5128 -8.70225 0 8.30385 -3.23953 2.06239e-015 0 -7.95139e-016 -4.12222e-006 -4.76837e-006 -15.1725 5.80397 -62.7538 4.56974 6.41961e-007 -3.99284e-006 -32.4113 31.2349 -1.02575 27.5607 -1.0813 4.80214e-006 -26.4919 0.681679 -2.85481 25.1397 0 8.30385 3.23953 2.06239e-015 0 -7.95139e-016 5.41452e-006 -4.76837e-006 15.1725 11.2051 70.0151 -8.41229 1.31199e-005 -2.43155e-006 32.4113 6.69677 19.5957 -13.3256 -1.0813 1.03766e-006 26.4919 -0.881209 -10.5088 -7.82077 1.90735e-006 0.00547028 -8.63673 3.1536 -2.33197 -3.88621 2.13963 -44.4933 -2.34936e-006 15.4334 -1.34465 5.24875 3.54051 -43.4407 6.57826e-007 -10.0249 4.10509 1.00345 -19.1252 -8.3927 -1.35324e-007 -7.6739 3.83247 -0.943562 1.90735e-006 0.00547028 8.63674 -28.6791 -0.204105 0.429399 2.13962 -44.4932 -3.45957e-007 14.637 2.03132 2.32429 3.54051 -43.4407 6.59216e-007 5.48248 -2.4336 3.42832 -19.1253 -8.39271 4.51526e-006 -6.68745 -1.86393 4.18637 
-50.9152 93.292 -74.0456 -2.01745 2.64937 176.358 1.07959 10.5691 1.19209e-007 0.960989 0.202942 1.17279 -1.08235 11.6675 1.19209e-007 1.91764 0.425468 2.34206 -3.92103e-007 10.5876 1.42109e-014 1.91765 0.425467 2.34203 -3.92103e-007 10.5876 2.84217e-014 1.91764 0.425468 2.34205 -5.51066e-007 14.88 2.84217e-014 9.69794 9.3687 -3.6804 -2.16553 9.61826 -2.38418e-007 -2.55763 -11.7961 -8.6271 0 8.30385 -3.23953 5.59082e-016 0 1.59028e-015 -4.12222e-006 -4.76837e-006 -15.1725 5.86728 -61.9754 5.42714 6.41961e-007 -3.99284e-006 -32.4113 31.0857 -0.488041 27.9313 -1.0813 4.80214e-006 -26.4919 0.487491 -2.04898 25.049 -7.10543e-015 8.30385 3.23953 5.59082e-016 0 1.59028e-015 5.41452e-006 -4.76837e-006 15.1725 7.38802 70.6189 -0.866163 1.31199e-005 -2.43155e-006 32.4113 3.64614 20.4601 -11.0476 -1.0813 1.03766e-006 26.4919 -0.589187 -11.0151 -4.37705 1.90735e-006 0.00547028 -8.63673 5.33306 -1.73998 -3.63595 2.13963 -44.4933 -2.34936e-006 16.4428 -1.26968 5.81317 3.54051 -43.4407 6.57826e-007 -9.43141 3.17769 1.74347 -19.1252 -8.3927 -1.35324e-007 -10.2533 5.3133 0.103135 1.90735e-006 0.00547028 8.63674 -28.7706 0.238966 -1.80067 2.13962 -44.4932 -3.45957e-007 5.59341 0.895045 2.97478 3.54051 -43.4407 6.59216e-007 5.56346 -2.10718 2.79961 -19.1253 -8.39271 4.51526e-006 -5.95356 -1.6514 4.31869 
-45.9294 92.6936 -74.34 -1.90298 2.05814 175.407 1.07959 10.5691 1.19209e-007 0.910643 0.170447 1.25561 -1.08235 11.6675 1.19209e-007 1.81737 0.360798 2.50841 -3.92103e-007 10.5876 1.42109e-014 1.81737 0.360795 2.50838 -3.92103e-007 10.5876 2.84217e-014 1.81736 0.360795 2.50838 -5.51066e-007 14.88 2.84217e-014 9.59482 8.77055 -3.69742 -2.16553 9.61828 -2.38418e-007 -2.4783 -11.4604 -8.43161 -1.42109e-014 8.30385 -3.23953 -7.0817e-016 0 -0 -4.12222e-006 -4.76837e-006 -15.1725 5.15549 -61.6374 4.93382 6.41961e-007 -3.99284e-006 -32.4113 30.9045 -0.445898 27.9242 -1.0813 4.80214e-006 -26.4919 0.340384 -1.4384 24.8685 -1.42109e-014 8.30385 3.23953 -7.0817e-016 0 -0 5.41452e-006 -4.76837e-006 15.1725 1.55293 70.701 8.41231 1.31199e-005 -2.43155e-006 32.4113 1.36925 20.6989 -8.73221 -1.0813 1.03766e-006 26.4919 -0.375908 -11.4218 -2.03001 1.90735e-006 0.00547028 -8.63673 7.52245 -1.52255 -4.56056 2.13963 -44.4933 -2.34936e-006 17.7461 -0.615327 6.05858 3.54051 -43.4407 6.57826e-007 -8.30236 2.15569 2.75598 -19.1252 -8.3927 -1.35324e-007 -13.3484 7.06277 1.98253 1.90735e-006 0.00547028 8.63674 -30.9958 0.449599 -3.63091 2.13962 -44.4932 -3.45957e-007 5.55266 -0.0317133 3.85209 3.54051 -43.4407 6.59216e-007 3.00212 -1.95563 2.86663 -19.1253 -8.39271 4.51526e-006 -5.28723 -1.4446 4.18031 
